<svg id="visual" viewBox="0 0 1920 1080" width="1920" height="1080" xmlns="http://www.w3.org/2000/svg" xmlns:xlink="http://www.w3.org/1999/xlink" version="1.1"><rect x="0" y="0" width="1920" height="1080" fill="#000000"></rect><path d="M0 890L45.7 900.3C91.3 910.7 182.7 931.3 274.2 927.3C365.7 923.3 457.3 894.7 548.8 876.8C640.3 859 731.7 852 823 854.7C914.3 857.3 1005.7 869.7 1097 881.3C1188.3 893 1279.7 904 1371.2 906.3C1462.7 908.7 1554.3 902.3 1645.8 893C1737.3 883.7 1828.7 871.3 1874.3 865.2L1920 859L1920 1081L1874.3 1081C1828.7 1081 1737.3 1081 1645.8 1081C1554.3 1081 1462.7 1081 1371.2 1081C1279.7 1081 1188.3 1081 1097 1081C1005.7 1081 914.3 1081 823 1081C731.7 1081 640.3 1081 548.8 1081C457.3 1081 365.7 1081 274.2 1081C182.7 1081 91.3 1081 45.7 1081L0 1081Z" fill="#DB3E4D" stroke-linecap="round" stroke-linejoin="miter"></path></svg>